<svg width="156" height="128" xmlns="http://www.w3.org/2000/svg" xmlns:xlink="http://www.w3.org/1999/xlink">
 <g>
  <title>background</title>
  <rect fill="none" id="canvas_background" height="402" width="582" y="-1" x="-1"/>
 </g>
 <g>
  <title>Layer 1</title>
  <defs>
   <path id="SVGID_2_" d="m14,30c0,-3.3 2.7,-6 6,-6l116,0c3.3,0 6,2.7 6,6l0,68c0,3.3 -2.7,6 -6,6l-116,0c-3.3,0 -6,-2.7 -6,-6l0,-68z"/>
  </defs>
  <clipPath id="SVGID_3_">
   <use id="svg_5" xlink:href="#SVGID_2_"/>
  </clipPath>
  <defs>
   <path id="SVGID_4_" d="m55.3,91.8l0,-3.8c0,-1.4 -0.8,-2.3 -2.3,-2.4c-0.8,0 -1.5,0.2 -2.1,1.1c-0.4,-0.7 -1.1,-1.1 -2,-1.1c-0.6,0 -1.3,0.2 -1.8,0.9l0,-0.7l-1.2,0l0,6l1.2,0l0,-3.4c0,-1 0.6,-1.6 1.5,-1.6s1.3,0.6 1.3,1.6l0,3.4l1.2,0l0,-3.4c0,-1 0.6,-1.6 1.5,-1.6s1.4,0.6 1.4,1.6l0,3.4l1.3,0zm19.4,-6l-2.2,0l0,-1.8l-1.2,0l0,1.8l-1.3,0l0,1.1l1.3,0l0,2.8c0,1.4 0.5,2.2 2,2.2c0.6,0 1.2,-0.2 1.6,-0.5l-0.4,-1.1c-0.4,0.2 -0.8,0.3 -1.1,0.3c-0.6,0 -0.9,-0.4 -0.9,-1l0,-2.8l2.2,0l0,-1zm11.1,-0.1c-0.7,0 -1.3,0.3 -1.6,0.9l0,-0.7l-1.2,0l0,6l1.2,0l0,-3.4c0,-1 0.5,-1.6 1.3,-1.6c0.3,0 0.5,0 0.8,0.2l0.4,-1.1c-0.3,-0.3 -0.7,-0.3 -0.9,-0.3zm-16.8,0.6c-0.6,-0.4 -1.5,-0.6 -2.4,-0.6c-1.5,0 -2.4,0.7 -2.4,1.9c0,1 0.7,1.6 2,1.7l0.6,0.1c0.7,0.1 1.1,0.3 1.1,0.7c0,0.5 -0.5,0.8 -1.4,0.8s-1.5,-0.3 -2,-0.6l-0.6,0.9c0.9,0.6 1.9,0.8 2.6,0.8c1.7,0 2.7,-0.8 2.7,-1.9c0,-1 -0.7,-1.6 -2,-1.8l-0.6,-0.1c-0.6,-0.1 -1.1,-0.2 -1.1,-0.6s0.5,-0.7 1.2,-0.7c0.8,0 1.5,0.3 1.9,0.5l0.4,-1.1zm18.1,2.5c0,1.8 1.2,3.1 3.1,3.1c0.9,0 1.5,-0.2 2.1,-0.7l-0.6,-0.9c-0.5,0.3 -1,0.5 -1.6,0.5c-1,0 -1.8,-0.8 -1.8,-2s0.8,-2 1.8,-2c0.6,0 1.1,0.2 1.6,0.5l0.6,-0.9c-0.6,-0.5 -1.2,-0.7 -2.1,-0.7c-1.9,0 -3.1,1.3 -3.1,3.1zm-8.4,-3.1c-1.7,0 -2.9,1.3 -2.9,3.1c0,1.9 1.2,3.1 3,3.1c0.9,0 1.7,-0.2 2.4,-0.8l-0.6,-0.9c-0.5,0.4 -1.1,0.6 -1.7,0.6c-0.8,0 -1.7,-0.5 -1.8,-1.5l4.5,0c0,-0.2 0,-0.3 0,-0.5c-0.1,-1.9 -1.2,-3.1 -2.9,-3.1zm0,1.1c0.9,0 1.5,0.6 1.6,1.5l-3.2,0c0.1,-0.9 0.7,-1.5 1.6,-1.5zm-16.1,2l0,-3l-1.2,0l0,0.7c-0.4,-0.5 -1.1,-0.9 -1.9,-0.9c-1.7,0 -2.9,1.3 -2.9,3.1c0,1.8 1.3,3.1 2.9,3.1c0.8,0 1.5,-0.3 1.9,-0.9l0,0.7l1.2,0l0,-2.8zm-4.9,0c0,-1.1 0.7,-2 1.9,-2c1.1,0 1.8,0.9 1.8,2c0,1.2 -0.7,2 -1.8,2c-1.1,0 -1.9,-0.9 -1.9,-2zm46.1,-3.1c-0.7,0 -1.3,0.3 -1.6,0.9l0,-0.7l-1.2,0l0,6l1.2,0l0,-3.4c0,-1 0.5,-1.6 1.3,-1.6c0.3,0 0.5,0 0.8,0.2l0.4,-1.1c-0.3,-0.3 -0.7,-0.3 -0.9,-0.3zm9.6,5.2c0.1,0 0.2,0 0.2,0c0.1,0 0.1,0.1 0.2,0.1c0.1,0.1 0.1,0.1 0.1,0.2s0,0.1 0,0.2s0,0.2 0,0.2c0,0.1 -0.1,0.1 -0.1,0.2c-0.1,0.1 -0.1,0.1 -0.2,0.1s-0.2,0 -0.2,0c-0.1,0 -0.2,0 -0.2,0c-0.1,0 -0.1,-0.1 -0.2,-0.1c-0.1,-0.1 -0.1,-0.1 -0.1,-0.2s0,-0.1 0,-0.2s0,-0.2 0,-0.2c0,-0.1 0.1,-0.1 0.1,-0.2c0.1,-0.1 0.1,-0.1 0.2,-0.1c0,0 0.1,0 0.2,0zm0,1.1c0.1,0 0.1,0 0.2,0s0.1,-0.1 0.1,-0.1l0.1,-0.1c0,-0.1 0,-0.1 0,-0.2s0,-0.1 0,-0.2s-0.1,-0.1 -0.1,-0.1l-0.1,-0.1c-0.1,0 -0.1,0 -0.2,0s-0.1,0 -0.2,0s-0.1,0.1 -0.1,0.1l-0.1,0.1c0,0.1 0,0.1 0,0.2s0,0.1 0,0.2s0.1,0.1 0.1,0.1l0.1,0.1c0.1,0 0.1,0 0.2,0zm0,-0.8c0.1,0 0.1,0 0.2,0l0.1,0.1l0,0.1c0,0 -0.1,0 -0.1,0.1l0.2,0.2l-0.1,0l-0.2,-0.2l-0.1,0l0,0.2l-0.1,0l0,-0.6l0.1,0l0,0.1zm-0.1,0.1l0,0l0,0l0.2,0.1c0,0 0,0 0,-0.1c0,0 0,0 0,-0.1c0,0 0,0 -0.2,0.1l0,0l0,0zm-14.1,-2.5l0,-3l-1.2,0l0,0.7c-0.4,-0.5 -1.1,-0.9 -1.9,-0.9c-1.7,0 -2.9,1.3 -2.9,3.1c0,1.8 1.3,3.1 2.9,3.1c0.8,0 1.5,-0.3 1.9,-0.9l0,0.7l1.2,0l0,-2.8zm-4.8,0c0,-1.1 0.7,-2 1.9,-2c1.1,0 1.8,0.9 1.8,2c0,1.2 -0.7,2 -1.8,2c-1.2,0 -1.9,-0.9 -1.9,-2zm16.8,0l0,-5.4l-1.2,0l0,3.1c-0.4,-0.5 -1.1,-0.9 -1.9,-0.9c-1.7,0 -2.9,1.3 -2.9,3.1c0,1.8 1.3,3.1 2.9,3.1c0.8,0 1.5,-0.3 1.9,-0.9l0,0.7l1.2,0l0,-2.8zm-4.8,0c0,-1.1 0.7,-2 1.9,-2c1.1,0 1.8,0.9 1.8,2c0,1.2 -0.7,2 -1.8,2c-1.2,0 -1.9,-0.9 -1.9,-2z"/>
  </defs>
  <clipPath id="SVGID_5_">
   <use id="svg_9" xlink:href="#SVGID_4_"/>
  </clipPath>
  <rect fill="#000000" clip-path="url(#SVGID_5_)" id="svg_10" y="78.4" x="40.9" width="78.1" height="18.7" class="st1"/>
  <defs>
   <rect y="40.5" x="67.6" width="21.6" id="SVGID_6_" height="35.3"/>
  </defs>
  <clipPath id="SVGID_7_">
   <use id="svg_13" xlink:href="#SVGID_6_"/>
  </clipPath>
  <rect fill="#ff5f00" clip-path="url(#SVGID_7_)" id="svg_14" y="35.5" x="62.6" width="31.6" height="45.3" class="st2"/>
  <defs>
   <path id="SVGID_8_" d="m69.9,58.1c0,-7.2 3.4,-13.5 8.6,-17.6c-3.8,-3 -8.6,-4.8 -13.9,-4.8c-12.4,0 -22.4,10 -22.4,22.4s10,22.4 22.4,22.4c5.2,0 10,-1.8 13.9,-4.8c-5.3,-4.1 -8.6,-10.5 -8.6,-17.6"/>
  </defs>
  <clipPath id="SVGID_9_">
   <use id="svg_17" xlink:href="#SVGID_8_"/>
  </clipPath>
  <rect fill="#eb001b" clip-path="url(#SVGID_9_)" id="svg_18" y="30.7" x="37.1" width="46.3" height="54.9" class="st3"/>
  <defs>
   <path id="SVGID_10_" d="m112.6,72l0,-0.7l0.3,0l0,-0.1l-0.7,0l0,0.1l0.3,0l0.1,0.7l0,0zm1.4,0l0,-0.9l-0.2,0l-0.3,0.6l-0.3,-0.6l-0.2,0l0,0.9l0.2,0l0,-0.7l0.2,0.6l0.2,0l0.2,-0.6l0,0.7l0.2,0z"/>
  </defs>
  <clipPath id="SVGID_11_">
   <use id="svg_21" xlink:href="#SVGID_10_"/>
  </clipPath>
  <rect fill="#f79e1b" clip-path="url(#SVGID_11_)" id="svg_22" y="66.1" x="107.1" width="11.9" height="10.9" class="st4"/>
  <defs>
   <path id="SVGID_12_" d="m114.7,58.1c0,12.4 -10,22.4 -22.4,22.4c-5.2,0 -10,-1.8 -13.9,-4.8c5.2,-4.1 8.6,-10.5 8.6,-17.6c0,-7.2 -3.4,-13.5 -8.6,-17.6c3.8,-3 8.6,-4.8 13.9,-4.8c12.4,0 22.4,10 22.4,22.4"/>
  </defs>
  <clipPath id="SVGID_13_">
   <use id="svg_25" xlink:href="#SVGID_12_"/>
  </clipPath>
  <rect fill="#f79e1b" clip-path="url(#SVGID_13_)" id="svg_26" y="30.7" x="73.4" width="46.3" height="54.9" class="st5"/>
 </g>
</svg>