<svg width="28" height="24" viewBox="0 0 28 24" fill="none" xmlns="http://www.w3.org/2000/svg">
<path d="M24.3775 6.2922C24.3945 6.54703 24.3945 6.80193 24.3945 7.05676C24.3945 14.8296 18.8688 23.7856 8.76951 23.7856C5.65809 23.7856 2.76775 22.8208 0.336426 21.1462C0.778498 21.2008 1.20351 21.219 1.66259 21.219C4.22988 21.219 6.59321 20.2906 8.48046 18.7069C6.06615 18.6523 4.04288 16.9594 3.34578 14.6294C3.68586 14.6839 4.02588 14.7203 4.38296 14.7203C4.876 14.7203 5.3691 14.6475 5.82813 14.5201C3.31182 13.974 1.42452 11.6076 1.42452 8.74966V8.67688C2.15559 9.11376 3.00576 9.38681 3.90681 9.42317C2.42762 8.36735 1.45854 6.56525 1.45854 4.52645C1.45854 3.43427 1.73052 2.43309 2.20661 1.55932C4.90997 5.12718 8.97351 7.45717 13.53 7.71206C13.445 7.27517 13.394 6.82014 13.394 6.36504C13.394 3.12481 15.8424 0.485352 18.8857 0.485352C20.4669 0.485352 21.8951 1.19528 22.8982 2.34209C24.1394 2.08726 25.3295 1.59574 26.3837 0.922235C25.9756 2.28752 25.1085 3.43433 23.9694 4.16241C25.0745 4.03505 26.1457 3.70732 27.1318 3.25228C26.3838 4.41725 25.4486 5.4548 24.3775 6.2922Z" fill="white"/>
</svg>
