<svg width="30" height="29" viewBox="0 0 30 29" fill="none" xmlns="http://www.w3.org/2000/svg">
<path d="M14.9815 6.96677C10.849 6.96677 7.51575 10.1674 7.51575 14.1354C7.51575 18.1035 10.849 21.3041 14.9815 21.3041C19.1139 21.3041 22.4472 18.1035 22.4472 14.1354C22.4472 10.1674 19.1139 6.96677 14.9815 6.96677ZM14.9815 18.796C12.311 18.796 10.1278 16.7059 10.1278 14.1354C10.1278 11.565 12.3045 9.47487 14.9815 9.47487C17.6585 9.47487 19.8351 11.565 19.8351 14.1354C19.8351 16.7059 17.652 18.796 14.9815 18.796ZM24.4939 6.67353C24.4939 7.60315 23.7142 8.3456 22.7526 8.3456C21.7844 8.3456 21.0112 7.59691 21.0112 6.67353C21.0112 5.75015 21.7909 5.00146 22.7526 5.00146C23.7142 5.00146 24.4939 5.75015 24.4939 6.67353ZM29.4386 8.37056C29.3281 6.13073 28.7953 4.14671 27.0864 2.51208C25.3841 0.877445 23.3178 0.365842 20.9852 0.253539C18.5811 0.122518 11.3753 0.122518 8.9712 0.253539C6.64507 0.359603 4.57885 0.871206 2.86999 2.50584C1.16112 4.14047 0.63482 6.12449 0.517864 8.36432C0.381415 10.6728 0.381415 17.5919 0.517864 19.9003C0.628323 22.1402 1.16112 24.1242 2.86999 25.7588C4.57885 27.3935 6.63858 27.9051 8.9712 28.0174C11.3753 28.1484 18.5811 28.1484 20.9852 28.0174C23.3178 27.9113 25.3841 27.3997 27.0864 25.7588C28.7888 24.1242 29.3216 22.1402 29.4386 19.9003C29.575 17.5919 29.575 10.679 29.4386 8.37056ZM26.3327 22.3772C25.8259 23.6001 24.8448 24.5422 23.5648 25.0351C21.648 25.7651 17.0997 25.5966 14.9815 25.5966C12.8633 25.5966 8.30845 25.7588 6.39817 25.0351C5.12464 24.5484 4.14351 23.6063 3.6302 22.3772C2.86999 20.5367 3.04542 16.1694 3.04542 14.1354C3.04542 12.1015 2.87648 7.72793 3.6302 5.89365C4.13701 4.67079 5.11814 3.7287 6.39817 3.23581C8.31495 2.50584 12.8633 2.67429 14.9815 2.67429C17.0997 2.67429 21.6545 2.51208 23.5648 3.23581C24.8383 3.72246 25.8194 4.66455 26.3327 5.89365C27.0929 7.73417 26.9175 12.1015 26.9175 14.1354C26.9175 16.1694 27.0929 20.543 26.3327 22.3772Z" fill="white"/>
</svg>
